<?xml version="1.0" encoding="UTF-8" standalone="no"?>
<!DOCTYPE svg PUBLIC "-//W3C//DTD SVG 1.1//EN" "http://www.w3.org/Graphics/SVG/1.1/DTD/svg11.dtd">
<svg width="100%" height="100%" viewBox="0 0 150 150" version="1.1" xmlns="http://www.w3.org/2000/svg" xmlns:xlink="http://www.w3.org/1999/xlink" xml:space="preserve" xmlns:serif="http://www.serif.com/" style="fill-rule:evenodd;clip-rule:evenodd;stroke-linejoin:round;stroke-miterlimit:2;">
    <g transform="matrix(1,0,0,1,-1247.84,-239.719)">
        <g id="Livello-2" serif:id="Livello 2">
        </g>
        <g id="Livello-1" serif:id="Livello 1">
        </g>
        <g id="Livello-5" serif:id="Livello 5" transform="matrix(0.719852,0,0,0.719852,1001.94,1209.11)">
            <g transform="matrix(0.299237,0,0,0.299237,564.401,-1085.14)">
                <g transform="matrix(0,694.587,694.587,0,-397.291,-873.949)">
                    <path d="M0,0C0,-0.132 0.051,-0.253 0.136,-0.342C0.227,-0.439 0.356,-0.5 0.5,-0.5C0.776,-0.5 1,-0.276 1,0C1,0.276 0.776,0.5 0.5,0.5C0.629,0.417 0.714,0.273 0.714,0.109C0.714,0.015 0.686,-0.072 0.638,-0.145C0.672,-0.091 0.691,-0.029 0.691,0.039C0.691,0.215 0.559,0.36 0.389,0.381C0.389,0.381 0.389,0.381 0.389,0.381C0.381,0.382 0.373,0.382 0.366,0.383C0.366,0.383 0.353,0.383 0.347,0.383C0.211,0.383 0.093,0.304 0.037,0.189C0.017,0.148 0.005,0.103 0.003,0.055C0.001,0.037 0,0.019 0,0ZM0.137,0.182C0.14,0.189 0.143,0.196 0.147,0.202C0.148,0.205 0.152,0.213 0.153,0.214C0.155,0.217 0.161,0.227 0.163,0.23C0.165,0.233 0.167,0.236 0.169,0.239C0.172,0.242 0.174,0.245 0.176,0.247C0.18,0.252 0.184,0.257 0.188,0.261C0.189,0.264 0.191,0.266 0.193,0.268C0.194,0.268 0.194,0.268 0.194,0.268C0.196,0.27 0.197,0.272 0.199,0.273C0.208,0.282 0.218,0.29 0.227,0.297L0.227,0.297C0.229,0.298 0.234,0.302 0.236,0.303C0.239,0.305 0.241,0.306 0.244,0.308C0.251,0.313 0.259,0.316 0.266,0.32C0.269,0.321 0.271,0.322 0.274,0.323C0.279,0.325 0.285,0.327 0.29,0.328L0.29,0.328C0.279,0.313 0.27,0.295 0.262,0.275C0.236,0.201 0.25,0.128 0.295,0.112C0.339,0.096 0.396,0.143 0.423,0.217C0.436,0.253 0.439,0.288 0.434,0.317C0.434,0.317 0.434,0.317 0.434,0.317C0.523,0.274 0.586,0.167 0.586,0.041C0.586,-0.084 0.524,-0.191 0.435,-0.234L0.435,-0.234C0.439,-0.206 0.435,-0.172 0.423,-0.138C0.396,-0.064 0.339,-0.017 0.295,-0.033C0.25,-0.049 0.236,-0.122 0.262,-0.196C0.269,-0.214 0.277,-0.23 0.287,-0.245C0.287,-0.245 0.287,-0.245 0.287,-0.245C0.283,-0.244 0.279,-0.242 0.276,-0.241C0.276,-0.241 0.275,-0.241 0.275,-0.241C0.272,-0.24 0.262,-0.235 0.26,-0.234C0.258,-0.233 0.257,-0.232 0.255,-0.231C0.251,-0.229 0.247,-0.227 0.243,-0.225C0.241,-0.224 0.232,-0.218 0.229,-0.216C0.229,-0.216 0.228,-0.215 0.228,-0.215C0.224,-0.212 0.221,-0.21 0.218,-0.207C0.216,-0.206 0.214,-0.204 0.213,-0.203C0.208,-0.199 0.203,-0.194 0.198,-0.19C0.197,-0.189 0.196,-0.187 0.195,-0.186C0.191,-0.183 0.188,-0.179 0.185,-0.176C0.181,-0.172 0.178,-0.168 0.175,-0.163C0.172,-0.159 0.169,-0.155 0.166,-0.151C0.164,-0.149 0.163,-0.147 0.162,-0.145C0.161,-0.144 0.16,-0.142 0.159,-0.141C0.158,-0.139 0.157,-0.137 0.156,-0.136C0.152,-0.13 0.149,-0.125 0.147,-0.12C0.146,-0.118 0.14,-0.107 0.139,-0.103C0.119,-0.061 0.169,0.04 0.169,0.04C0.169,0.04 0.118,0.14 0.137,0.182Z" style="fill-rule:nonzero;"/>
                </g>
                <g transform="matrix(-1.38917,0,0,1.38917,-369.085,-563.077)">
                    <path d="M-0.044,13.948C12.491,13.948 25.203,-4.237 25.6,-4.811C25.336,-4.061 16.861,18.759 -0.044,18.759C-17.92,18.759 -25.424,-4.061 -25.644,-4.811C-25.291,-4.237 -13.286,13.948 -0.044,13.948" style="fill-rule:nonzero;"/>
                </g>
                <g transform="matrix(1.38917,0,0,1.38917,-408.512,-601.705)">
                    <path d="M0,-4.591C0,4.193 28.425,15.934 28.425,15.934C28.425,15.934 35.531,12.976 42.638,8.96C49.7,4.943 56.806,-0.221 56.806,-4.591C56.806,-13.33 49.656,-20.525 40.872,-20.525L15.934,-20.525C11.564,-20.525 7.548,-18.715 4.679,-15.846C1.81,-12.933 0,-8.961 0,-4.591" style="fill-rule:nonzero;"/>
                </g>
            </g>
        </g>
        <g id="Livello-4" serif:id="Livello 4">
        </g>
    </g>
</svg>
