<svg xmlns="http://www.w3.org/2000/svg" xmlns:xlink="http://www.w3.org/1999/xlink" xmlns:serif="http://www.serif.com/" width="100%" height="100%" viewBox="0 0 500 500" version="1.1" xml:space="preserve" style="fill-rule:evenodd;clip-rule:evenodd;stroke-linejoin:round;stroke-miterlimit:2;">
    <g id="Livello-6" serif:id="Livello 6">
        <g transform="matrix(0,460.407,460.407,0,250,19.7964)">
            <path d="M0.374,0.387L0.379,0.383L0.366,0.396C0.374,0.395 0.382,0.395 0.391,0.394L0.39,0.393L0.391,0.393L0.391,0.394C0.55,0.374 0.677,0.25 0.7,0.091C0.701,0.097 0.701,0.103 0.701,0.109C0.701,0.268 0.618,0.409 0.493,0.489C0.488,0.492 0.486,0.498 0.488,0.504C0.489,0.509 0.494,0.513 0.5,0.513C0.783,0.513 1.013,0.283 1.013,0C1.013,-0.283 0.783,-0.513 0.5,-0.513C0.353,-0.513 0.22,-0.451 0.126,-0.351C0.04,-0.259 -0.013,-0.136 -0.013,0C-0.013,0.019 -0.012,0.038 -0.01,0.056C-0.008,0.105 0.005,0.152 0.025,0.195L0.025,0.195C0.083,0.314 0.206,0.396 0.347,0.396C0.353,0.396 0.36,0.396 0.366,0.396L0.374,0.387ZM0.377,0.382C0.373,0.382 0.365,0.383 0.365,0.383C0.359,0.383 0.353,0.383 0.347,0.383C0.211,0.383 0.093,0.304 0.037,0.189C0.017,0.148 0.005,0.103 0.003,0.055C0.001,0.037 0,0.019 0,0C0,-0.132 0.051,-0.253 0.136,-0.342C0.227,-0.439 0.356,-0.5 0.5,-0.5C0.776,-0.5 1,-0.276 1,0C1,0.276 0.776,0.5 0.5,0.5C0.629,0.417 0.714,0.273 0.714,0.109C0.714,0.015 0.686,-0.072 0.638,-0.145C0.672,-0.091 0.691,-0.029 0.691,0.039C0.691,0.215 0.559,0.36 0.389,0.381C0.389,0.381 0.389,0.381 0.389,0.381C0.385,0.381 0.381,0.382 0.377,0.382L0.378,0.383L0.377,0.382ZM0.435,-0.233C0.439,-0.205 0.435,-0.172 0.423,-0.138C0.396,-0.064 0.339,-0.017 0.295,-0.033C0.25,-0.049 0.236,-0.122 0.262,-0.196C0.269,-0.214 0.277,-0.23 0.287,-0.245C0.287,-0.245 0.287,-0.245 0.287,-0.245C0.283,-0.244 0.279,-0.242 0.276,-0.241C0.276,-0.241 0.275,-0.241 0.275,-0.241C0.272,-0.24 0.262,-0.235 0.26,-0.234C0.258,-0.233 0.257,-0.232 0.255,-0.231C0.251,-0.229 0.247,-0.227 0.243,-0.225C0.241,-0.224 0.232,-0.218 0.229,-0.216C0.229,-0.216 0.228,-0.215 0.228,-0.215C0.224,-0.212 0.221,-0.21 0.218,-0.207C0.216,-0.206 0.214,-0.204 0.213,-0.203C0.208,-0.199 0.203,-0.194 0.198,-0.19C0.197,-0.189 0.196,-0.187 0.195,-0.186C0.191,-0.183 0.188,-0.179 0.185,-0.176C0.181,-0.172 0.178,-0.168 0.175,-0.163C0.172,-0.159 0.169,-0.155 0.166,-0.151C0.164,-0.149 0.163,-0.147 0.162,-0.145C0.161,-0.144 0.16,-0.142 0.159,-0.141C0.158,-0.139 0.157,-0.137 0.156,-0.136C0.152,-0.13 0.149,-0.125 0.147,-0.12C0.146,-0.118 0.14,-0.107 0.139,-0.103C0.119,-0.061 0.169,0.04 0.169,0.04C0.169,0.04 0.118,0.14 0.137,0.182C0.14,0.189 0.143,0.196 0.147,0.202C0.148,0.205 0.152,0.213 0.153,0.214C0.155,0.217 0.161,0.227 0.163,0.23C0.165,0.233 0.167,0.236 0.169,0.239C0.172,0.242 0.174,0.245 0.176,0.247C0.18,0.252 0.184,0.257 0.188,0.261C0.189,0.264 0.191,0.266 0.193,0.268C0.194,0.268 0.194,0.268 0.194,0.268C0.196,0.27 0.197,0.272 0.199,0.273C0.208,0.282 0.218,0.29 0.227,0.297L0.227,0.297C0.229,0.298 0.232,0.301 0.233,0.301L0.24,0.297L0.24,0.297L0.233,0.301C0.234,0.302 0.241,0.306 0.244,0.308C0.251,0.313 0.259,0.316 0.266,0.32C0.269,0.321 0.271,0.322 0.274,0.323C0.279,0.325 0.285,0.327 0.29,0.328L0.29,0.328C0.279,0.313 0.27,0.295 0.262,0.275C0.236,0.201 0.25,0.128 0.295,0.112C0.339,0.096 0.396,0.143 0.423,0.217C0.435,0.25 0.438,0.282 0.435,0.309L0.441,0.313C0.527,0.268 0.586,0.163 0.586,0.041C0.586,-0.083 0.524,-0.189 0.437,-0.233L0.435,-0.233ZM0.435,-0.234C0.435,-0.234 0.435,-0.234 0.435,-0.234L0.435,-0.234L0.435,-0.234L0.435,-0.234ZM0.449,-0.211C0.523,-0.164 0.573,-0.069 0.573,0.041C0.573,0.151 0.523,0.247 0.449,0.294C0.45,0.269 0.445,0.241 0.435,0.213C0.418,0.165 0.389,0.128 0.358,0.11C0.335,0.096 0.311,0.092 0.29,0.1L0.29,0.1C0.269,0.107 0.253,0.125 0.244,0.15C0.232,0.184 0.233,0.231 0.25,0.279C0.25,0.279 0.25,0.279 0.25,0.279C0.253,0.287 0.256,0.295 0.26,0.302C0.257,0.301 0.251,0.297 0.251,0.297C0.248,0.295 0.235,0.287 0.235,0.287C0.226,0.28 0.217,0.272 0.208,0.264C0.208,0.264 0.197,0.253 0.197,0.253C0.193,0.248 0.186,0.239 0.186,0.239C0.184,0.237 0.182,0.234 0.18,0.231C0.178,0.229 0.174,0.223 0.174,0.223C0.172,0.22 0.166,0.21 0.165,0.208C0.164,0.208 0.158,0.196 0.158,0.196C0.155,0.19 0.152,0.184 0.149,0.177C0.149,0.177 0.149,0.177 0.149,0.177C0.142,0.162 0.147,0.139 0.153,0.117C0.163,0.08 0.18,0.045 0.18,0.045C0.182,0.042 0.182,0.037 0.18,0.034C0.18,0.034 0.163,-0.001 0.153,-0.038C0.147,-0.06 0.144,-0.083 0.15,-0.098C0.152,-0.101 0.157,-0.112 0.158,-0.114C0.161,-0.119 0.167,-0.129 0.167,-0.129C0.168,-0.131 0.17,-0.134 0.17,-0.135C0.171,-0.136 0.172,-0.137 0.173,-0.138C0.174,-0.14 0.176,-0.144 0.176,-0.144C0.179,-0.148 0.185,-0.155 0.185,-0.155C0.188,-0.16 0.195,-0.167 0.195,-0.167C0.198,-0.171 0.204,-0.177 0.204,-0.177C0.205,-0.178 0.207,-0.181 0.207,-0.181C0.212,-0.185 0.221,-0.193 0.221,-0.193C0.223,-0.194 0.226,-0.197 0.226,-0.197C0.229,-0.2 0.236,-0.205 0.236,-0.205C0.237,-0.205 0.248,-0.213 0.25,-0.214C0.252,-0.215 0.255,-0.217 0.257,-0.218C0.255,-0.212 0.25,-0.2 0.25,-0.2C0.233,-0.153 0.232,-0.105 0.244,-0.071C0.253,-0.046 0.269,-0.028 0.29,-0.021C0.311,-0.013 0.335,-0.017 0.358,-0.031C0.389,-0.049 0.418,-0.086 0.435,-0.134C0.445,-0.161 0.449,-0.187 0.449,-0.211Z" style="fill:#1f1f1f;"/>
        </g>
        <g transform="matrix(0.920814,0,0,0.920814,137.377,212.242)">
            <path d="M1.854,-71.063C1.898,-71.239 1.942,-71.372 2.03,-71.504C2.516,-72.784 3.046,-74.064 3.664,-75.3C4.149,-76.58 4.723,-77.816 5.385,-79.052C5.738,-79.89 6.138,-80.683 6.577,-81.524C7.439,-83.186 8.346,-84.827 9.295,-86.46C9.476,-86.772 9.659,-87.083 9.843,-87.394C9.876,-87.45 9.908,-87.505 9.942,-87.56C10.621,-88.695 11.366,-89.81 12.094,-90.925C12.831,-92.053 13.551,-93.22 14.389,-94.324C14.478,-94.544 14.654,-94.765 14.875,-94.986C14.88,-94.994 14.886,-95.002 14.891,-95.01C16.078,-96.767 17.375,-98.463 18.759,-100.15C19.476,-101.023 20.128,-101.871 20.833,-102.71C22.91,-105.181 25.157,-107.568 27.41,-109.905C27.995,-110.512 28.613,-111.129 29.22,-111.714C30.928,-113.36 32.626,-114.973 34.428,-116.525C36.467,-118.281 38.544,-120.041 40.696,-121.69C42.693,-123.22 44.734,-124.703 46.787,-126.147C47.402,-126.58 48.007,-127.012 48.623,-127.434C48.992,-127.684 49.364,-127.932 49.744,-128.178C49.896,-128.274 50.047,-128.371 50.197,-128.469C50.74,-128.821 51.275,-129.173 51.818,-129.502C52.719,-130.048 53.594,-130.633 54.511,-131.179C56.955,-132.635 59.425,-134.098 61.96,-135.443C62.11,-135.523 62.261,-135.602 62.412,-135.681C63.426,-136.212 64.435,-136.711 65.457,-137.226C67.125,-138.067 68.813,-138.862 70.493,-139.638C70.535,-139.658 70.578,-139.678 70.621,-139.698C92.029,-149.408 142.082,-124.691 142.082,-124.691C142.082,-124.691 192.443,-149.762 213.409,-140.537C216.852,-139.036 220.144,-137.368 223.429,-135.681C224.348,-135.209 225.276,-134.71 226.188,-134.21C226.581,-133.993 226.971,-133.777 227.357,-133.563C227.495,-133.486 227.633,-133.408 227.771,-133.33C228.338,-133.007 228.901,-132.672 229.476,-132.327C230.611,-131.645 231.762,-130.943 232.874,-130.253C234.406,-129.304 235.947,-128.329 237.421,-127.339C238.341,-126.721 239.262,-126.094 240.164,-125.461C240.715,-125.074 241.259,-124.685 241.79,-124.294C242.637,-123.672 243.474,-123.052 244.302,-122.422C244.867,-121.994 245.427,-121.561 245.983,-121.116C248.397,-119.2 250.735,-117.215 253.002,-115.201C254.054,-114.266 255.076,-113.303 256.091,-112.288C256.268,-112.156 256.4,-112.023 256.488,-111.935C257.316,-111.13 258.158,-110.295 258.916,-109.507C263.287,-104.964 267.346,-100.238 270.922,-95.251C271.319,-94.677 271.76,-94.103 272.157,-93.485C272.18,-93.453 272.203,-93.421 272.226,-93.389C272.735,-92.666 273.27,-91.898 273.747,-91.146C274.65,-89.718 275.556,-88.321 276.395,-86.909C278.513,-83.333 280.412,-79.626 282.089,-75.83C282.662,-74.55 283.192,-73.27 283.678,-71.99C284.737,-69.341 285.664,-66.693 286.459,-64.001C278.734,-69.43 269.686,-74.152 259.666,-77.772C222.59,-91.013 186.132,-83.819 178.187,-61.661C170.286,-39.504 193.856,-10.77 230.888,2.472C248.632,8.828 266.243,10.505 280.632,8.077C259.093,52.569 205.553,84.084 142.964,84.084C80.508,84.084 27.101,52.701 5.429,8.386C19.421,10.329 36.194,8.519 53.099,2.472C90.175,-10.77 113.745,-39.504 105.8,-61.661C97.899,-83.819 61.441,-91.013 24.365,-77.772C15.36,-74.55 7.15,-70.401 -0,-65.678C0.574,-67.488 1.192,-69.297 1.854,-71.063ZM114.23,-17.611C114.23,-8.827 142.655,2.914 142.655,2.914C142.655,2.914 149.767,-0.034 156.868,-4.06C163.936,-8.067 171.036,-13.241 171.036,-17.611C171.036,-26.35 163.886,-33.545 155.102,-33.545L130.164,-33.545C125.794,-33.545 121.767,-31.746 118.909,-28.866C116.029,-25.964 114.23,-21.981 114.23,-17.611ZM142.656,28.734C130.121,28.734 117.409,10.549 117.012,9.975C117.276,10.725 125.751,33.545 142.656,33.545C160.532,33.545 168.036,10.725 168.256,9.975C167.903,10.549 155.898,28.734 142.656,28.734Z" style="fill:#1f1f1f;fill-rule:nonzero;"/>
        </g>
        <g transform="matrix(-0.920814,0,0,0.920814,268.696,225.858)">
            <path d="M-0.044,13.948C12.491,13.948 25.203,-4.237 25.6,-4.811C25.336,-4.061 16.861,18.759 -0.044,18.759C-17.92,18.759 -25.424,-4.061 -25.644,-4.811C-25.291,-4.237 -13.286,13.948 -0.044,13.948" style="fill:none;fill-rule:nonzero;"/>
        </g>
        <g transform="matrix(0.920814,0,0,0.920814,242.562,200.253)">
            <path d="M0,-4.591C0,4.193 28.425,15.934 28.425,15.934C28.425,15.934 35.531,12.976 42.638,8.96C49.7,4.943 56.806,-0.221 56.806,-4.591C56.806,-13.33 49.656,-20.525 40.872,-20.525L15.934,-20.525C11.564,-20.525 7.548,-18.715 4.679,-15.846C1.81,-12.933 0,-8.961 0,-4.591" style="fill:none;fill-rule:nonzero;"/>
        </g>
    </g>
</svg>